<svg version="1" xmlns="http://www.w3.org/2000/svg" width="149.333" height="149.333" viewBox="0 0 112.000000 112.000000"><path d="M0 56v56h9.5c6.3 0 9.5-.4 9.5-1.1 0-.6.6-.9 1.4-.6.7.3 1.3 0 1.3-.6-.1-4.5.4-6.8 1.5-6.5.8.3 1.1 2 .9 4.7l-.3 4.2 44.1-.2 44.1-.1V6h-3.6c-3.1 0-3.5.3-2.9 2 .5 1.6.2 2-1.9 2-1.4 0-2.6-.4-2.6-1 0-.5-.7-.7-1.6-.3-.9.3-1.3 1.2-.9 2.2.5 1.3.4 1.4-.6.3-.7-.6-2.3-1.2-3.6-1.2-3.4 0-2.8-2.4 1.1-4.3 1.9-.9 4-2.5 4.6-3.7 1-2 .8-2-9-2-8.2 0-10 .3-10 1.5C81 2.6 79.9 3 76.9 3c-4 0-4.1.1-3.4 2.7.9 3.6 1.3 3.9 2.7 2.5.7-.7 2-1.2 3-1.2 1.7 0 1.8.2.3 3-1.9 3.6-3.7 3.8-7.2.5-2-1.8-2.7-3.4-2.7-6.5l-.1-4H38.7C14.6 0 7.9.3 8.2 1.2c.3.8 1.9 1.2 4.1 1 2.8-.3 3.7 0 3.7 1.2C16 4.7 14.8 5 10.5 5 5.3 5 5 4.9 5 2.5 5 .5 4.5 0 2.5 0H0v56zM96 4c0 .5-.5 1-1.1 1-.5 0-.7-.5-.4-1 .3-.6.8-1 1.1-1 .2 0 .4.4.4 1zm-79.5 6.5c0 1.5-.8 2.1-3.4 2.3-2.1.2-3.1 0-2.6-.7.3-.6 1.6-1.1 2.8-1.2h2.2l-2.2-.9c-3.1-1.3-2.9-2.2.5-1.8 1.9.2 2.7.9 2.7 2.3zm87.9 4.1c2 1.9 2.2 12.2.4 14.7-.8 1-3.4 2-6.1 2.3-6.3.9-7.6-.8-7.7-9.8 0-5.3.4-6.9 1.8-7.7 2.7-1.6 9.8-1.3 11.6.5zM17 15.9c0 .5-.7 1.2-1.6 1.5-2.1.8-2.4.8-2.4-.5 0-.5.5-.7 1-.4.6.3 1 .1 1-.4 0-.6.5-1.1 1-1.1.6 0 1 .4 1 .9zm64 .1c0 .5-1.6 1-3.5 1s-3.5.5-3.5 1.1c0 .6.9.9 2 .6 1.5-.4 2 0 2 1.4 0 1-.7 1.9-1.5 1.9s-1.5.3-1.5.7c0 1.2 3.3 4.3 4.7 4.3.7 0 1.3.4 1.3 1 0 1.7-3.6 1.1-6.3-1-1.4-1.1-3.5-2-4.6-2-2.2 0-2.8-1.4-1.1-2.5.6-.3 1-2.2 1-4.1V15h5.5c3 0 5.5.4 5.5 1zm-65.9 4c1 0 1.9.7 1.9 1.5 0 1.6-2.5 2.1-3.4.6-.3-.5-1.5-.7-2.6-.4-1.1.3-2 .1-2-.4 0-1.6 1.3-2.4 2.8-1.8.7.3 2.2.5 3.3.5zm45.3 3.5c1.7 1.3 1.8 1.5.3 1.5-1.2 0-1.7.8-1.6 2.7.1 1.7.3 2.1.6 1 .6-2.1 1.9-2.2 2.7-.1 1 2.6-.2 3.4-5 3.4-4 0-4.4-.2-4.4-2.5 0-1.6.6-2.5 1.5-2.5.8 0 1.5-.5 1.5-1 0-.6-.5-1-1-1-.6 0-.5-.6.2-1.5 1.6-1.8 2.8-1.8 5.2 0zM14 24c0 .5 1.6 1 3.6 1 2.8 0 3.5.3 3.2 1.7-.2 1.2-1.3 1.8-3.3 1.8-2.4 0-2.9.4-2.7 2 .2 1.1 1.5 3 3 4.2 3.1 2.6 2.5 3.7-1.7 2.8-3.3-.7-6.1-3.8-6.1-6.7 0-1-.7-1.8-1.5-1.8-1.8 0-2-2.6-.2-4.5 1.4-1.6 5.7-2 5.7-.5zm67.5 8.1c0 1.7-6.3 2.5-7.7 1.1-1.7-1.7 0-2.9 3.9-2.7 2.4.2 3.8.8 3.8 1.6zM71 35.5c0 2.9 2.6 4.5 7.4 4.5 2.9 0 3.6.4 3.6 2 0 1.7-.7 2-4.5 2-5.9 0-8.5-2.5-8.5-8.1 0-2.4.4-3.8 1-3.4.6.3 1 1.7 1 3zm-9-1.3c0 .5-1.1 2.4-2.5 4.2-1.4 1.8-2.5 3.6-2.5 4.1 0 .4 1.1.4 2.5.1 1.4-.4 2.5-.2 2.5.4 0 .5-2 1-4.5 1s-4.5-.5-4.5-1.1c0-.6 1.2-2.6 2.6-4.5l2.6-3.4h-2.6c-1.4 0-2.6-.5-2.6-1 0-.6 2-.9 4.5-.8 2.5 0 4.5.5 4.5 1zm41.4 4.1c-.4 2.3-.7 4.2-.8 4.3-.1.1-2.2.4-4.8.7-4.7.7-4.8.6-4.8-2.1 0-6.2.8-7.1 6.1-7h4.9l-.6 4.1zM82 36.5c0 1.1-1.2 1.5-4.5 1.5s-4.5-.4-4.5-1.5 1.2-1.5 4.5-1.5 4.5.4 4.5 1.5zm-61 6c0 1.9-.5 4.6-1.2 6-.9 1.9-.9 2.8 0 3.7 1.9 1.9 1.4 2.8-1.3 2.8-1.4 0-2.5-.5-2.5-1.1 0-.6-.7-.8-1.6-.5-4.5 1.7-6.4 1.8-6.4.2 0-.9 1.1-2.1 2.4-2.6 2.8-1 5.6-4.7 5.6-7.2 0-1.9-3-3.1-6.9-2.6-1.3.2-2.6-.3-2.8-1-.4-.9 1.5-1.2 7.1-1.2H21v3.5zm41.8 4c.4.4.1 1-.5 1.2-.7.3-1.3 1.1-1.3 1.9 0 2-2.8 1.7-3.3-.4-.4-1.3-.5-1.1-.6.6-.1 1.6.7 2.5 2.5 3.2 1.4.6 2.2 1.4 1.9 2-1.8 2.9-8.1-1.6-7-5.1.4-1.3.2-1.9-.9-1.9-1.9 0-2.1-1.6-.3-2.3 1.7-.7 8.6-.1 9.5.8zM81 47.6c0 1-.6 1.4-1.5 1-1.2-.4-1.5.4-1.5 3.9 0 3.3.4 4.5 1.5 4.5.8 0 1.5.7 1.5 1.5 0 1.2-1.3 1.5-5.5 1.5s-5.5-.3-5.5-1.5c0-.8.7-1.5 1.5-1.5 1.1 0 1.5-1.1 1.5-4s-.4-4-1.5-4c-.8 0-1.5-.7-1.5-1.5 0-1.2 1.3-1.5 5.5-1.5 4.4 0 5.5.3 5.5 1.6zm26 6.4c0 .5-1.2 1.1-2.7 1.1l-2.8.2 2.8.4c2.2.4 2.7.9 2.7 3.4 0 2.7-.3 3-2.7 2.7-1.7-.2-2.8-.9-2.8-1.8 0-2.1-4.3-2.6-5.1-.6-.9 2.4 2.3 6.6 6.3 8.3 2.7 1.1 3.3 1.7 2.4 2.6-.8.8-2.2.8-5.4-.2-2.3-.7-6.8-1.4-9.9-1.4-5.1-.2-5.7-.4-5.3-2.2.2-1.1.4-2.4.4-2.9.1-.5.9 0 1.9 1 .9 1 2.7 1.9 4 2 2.7.1 2.9-1.2.2-2.1-1.1-.3-2-1.1-2-1.6 0-.6.5-.7 1-.4.6.4 1-.8 1-2.9 0-3.4.2-3.6 3.3-3.8l3.2-.1-3.2-.4C88 54.5 91.1 53 99 53c4.7 0 8 .4 8 1zm-50.5 7c-.6 3.5-.4 4 1.3 4 1.5 0 1.8-.5 1.4-2.5-.2-1.4 0-2.5.6-2.5 1.3 0 1.7.7 2.6 4.2.6 2.7.5 2.8-3.1 2.8-4.9 0-6.1-.9-5.7-4 .1-1.4.3-3.3.3-4.3.1-.9.8-1.7 1.7-1.7 1.3 0 1.5.7.9 4zm-43.7 3.7c.2.9-.9 1.3-3.7 1.3-3 0-4.1-.4-4.1-1.6 0-1.1.9-1.4 3.7-1.2 2 .2 3.8.9 4.1 1.5zm8.2-.2c0 1-1.1 1.5-3.5 1.5s-3.5-.5-3.5-1.5 1.1-1.5 3.5-1.5 3.5.5 3.5 1.5zM62 70c0 .5-1.2 1.1-2.7 1.1l-2.8.1 3 .8c2.5.6 1.9 1.5-.7 1.1-.5 0-.8.3-.8.9 0 .5.6 1 1.4 1 2 0 2.6 2.4 2 7.6-.3 2.8-.1 5.1.7 6 1.8 2.2.3 2.9-2.5 1.1-1.3-.9-2.6-2.7-2.8-3.9-.2-1.5-1.1-2.4-2.5-2.6-2.8-.4-3-2.2-.3-2.2 1.1 0 2-.5 2-1 0-.6-.9-1-2-1s-2-.5-2-1c0-.6.9-1 2-1s2-.7 2-1.5-.7-1.5-1.5-1.5c-1.8 0-1.9-.4-.3-3 1.3-2.1 7.8-2.9 7.8-1zm28 0c0 .5-.4 1-1 1-.5 0-1 .7-1 1.5s-.4 1.5-1 1.5c-1.1 0-1.4-3.3-.3-4.3 1-1.1 3.3-.8 3.3.3zm9.4 3.5c5.5 0 8.1.4 8.4 1.2.2.9-1.2 1.4-5 1.5l-5.3.1 4.5.4c2.5.3 4.9.8 5.3 1.3 1.5 1.4-.3 5-3.3 6.5-3.1 1.6-4.9.5-2.5-1.5 1.8-1.5 1-3-1.6-3-2 0-2.3 1-1.3 4.7.5 1.9 1.3 2.3 4.5 2.3s3.9.3 3.9 2-.7 2-4.5 2c-5.6 0-9.5-3.2-9.5-8 0-1.6-.4-3-1-3-1.4 0-1.2-2.7.3-3.4.6-.3-.3-.3-2 0-1.8.3-3.3.2-3.3-.2 0-1.3 3.3-4.5 3.9-3.7.3.5 4.2.8 8.5.8zM13 77c0 1.7.3 1.9 1.9 1 2.7-1.4 3.1-1.3 3.1.9 0 1.1-.9 2.3-2.1 2.6-2.9 1-2 3.7 1.8 5.5 4.1 1.9 4.5 4.3.6 3.4-3.5-.8-7.3-3.1-7.3-4.4 0-.6-.9-1-2-1-2 0-2.8-2.4-1.2-3.4.5-.3.7-1.9.4-3.6-.4-2.7-.2-3 2.2-3 1.9 0 2.6.5 2.6 2zm43.4 9.7c.3 1 .9 2.4 1.2 3 .3.7.1 1.3-.5 1.3-1.4 0-5.1-3.7-5.1-5 0-1.7 3.7-1.1 4.4.7zm-38.5 6.9c3.1 1.5 3.4 3.4.5 3.4-2.4 0-1.8 5.7.7 6.3 1.2.3 1.9 1.1 1.7 1.8-1.2 3.7-12.8 3.5-12.8-.1 0-1.1.7-2 1.5-2 1 0 1.5-1 1.5-3s-.5-3-1.5-3c-2.3 0-1.8-2.4.8-3.6 3.1-1.6 4-1.6 7.6.2zM94 94c0 .5-.4 1-1 1-.5 0-1-.5-1-1 0-.6.5-1 1-1 .6 0 1 .4 1 1zm1.4 11.5c.3.9 0 1.5-.9 1.5-.8 0-1.5-.7-1.5-1.5s.4-1.5.9-1.5 1.1.7 1.5 1.5zm7.7.1c1.2 1.4 1.1 1.6-.5 1.3-1.1-.2-2.1-1-2.4-1.7-.5-1.7 1.3-1.5 2.9.4z"/><path d="M96.5 17c-1.7.7-1.5.9 1.3.9 1.7.1 3.2-.4 3.2-.9 0-1.2-1.7-1.2-4.5 0zM100.2 20.6c-.7.8-.8 1.4-.2 1.4.5 0 1 .4 1 1 0 .5-1 1-2.2 1-2.1 0-2.1 0-.2 1.9 2.5 2.4 3.6 1.3 3.2-3.2-.2-2.9-.5-3.3-1.6-2.1zM95 21c0 .5.7 1 1.5 1s1.5-.5 1.5-1c0-.6-.7-1-1.5-1s-1.5.4-1.5 1zM95.3 27.2c.3.9.1 1.9-.6 2.2-.7.2.2.5 1.8.5 2.1 0 2.6-.2 1.6-.8-.7-.5-1.8-1.5-2.3-2.2-.8-1.1-.9-1-.5.3zM98.2 39c0 1.4.2 1.9.5 1.2.2-.6.2-1.8 0-2.5-.3-.6-.5-.1-.5 1.3zM106.5 2c-1.8 2-1.7 2 1.8 2 3 0 3.7-.4 3.7-2 0-1.3-.7-2-1.8-2s-2.7.9-3.7 2z"/></svg>